<svg width="48" height="42" viewBox="0 0 48 42" fill="none" xmlns="http://www.w3.org/2000/svg">
<path d="M37.5 3C33.3579 3 30 6.35786 30 10.5C30 11.3284 29.3284 12 28.5 12C27.6716 12 27 11.3284 27 10.5C27 4.70101 31.701 0 37.5 0C43.299 0 48 4.70101 48 10.5C48 16.299 43.299 21 37.5 21H1.5C0.671573 21 0 20.3284 0 19.5C0 18.6716 0.671573 18 1.5 18H37.5C41.6421 18 45 14.6421 45 10.5C45 6.35786 41.6421 3 37.5 3ZM16.5 6C14.8431 6 13.5 7.34315 13.5 9C13.5 9.82843 12.8284 10.5 12 10.5C11.1716 10.5 10.5 9.82843 10.5 9C10.5 5.68629 13.1863 3 16.5 3C19.8137 3 22.5 5.68629 22.5 9C22.5 12.3137 19.8137 15 16.5 15H1.5C0.671573 15 0 14.3284 0 13.5C0 12.6716 0.671573 12 1.5 12H16.5C18.1569 12 19.5 10.6569 19.5 9C19.5 7.34315 18.1569 6 16.5 6ZM0 25.5C0 24.6716 0.671573 24 1.5 24H31.625C36.5956 24 40.625 28.0294 40.625 33C40.625 37.9706 36.5956 42 31.625 42C26.6544 42 22.625 37.9706 22.625 33C22.625 32.1716 23.2966 31.5 24.125 31.5C24.9534 31.5 25.625 32.1716 25.625 33C25.625 36.3137 28.3113 39 31.625 39C34.9387 39 37.625 36.3137 37.625 33C37.625 29.6863 34.9387 27 31.625 27H1.5C0.671573 27 0 26.3284 0 25.5Z" fill="white"/>
</svg>
